<?xml version="1.0" encoding="utf-8"?>
<!-- Generator: Adobe Illustrator 26.0.3, SVG Export Plug-In . SVG Version: 6.00 Build 0)  -->
<svg version="1.1" id="Layer_1" xmlns="http://www.w3.org/2000/svg" xmlns:xlink="http://www.w3.org/1999/xlink" x="0px" y="0px"
	 viewBox="0 0 161.6 141.6" style="enable-background:new 0 0 161.6 141.6;" xml:space="preserve">
<style type="text/css">
	.st0{fill:#FFFFFF;}
	.st1{font-family:'MyriadPro-Regular';}
	.st2{font-size:12px;}
	.st3{fill:none;stroke:#FFFFFF;stroke-miterlimit:10;}
</style>
<text transform="matrix(1 0 0 1 6.8881 75.9999)" class="st0 st1 st2">Construct</text>
<text transform="matrix(1 0 0 1 98.8158 23.2588)" class="st0 st1 st2">Render</text>
<text transform="matrix(1 0 0 1 105.6722 112.5241)" class="st0 st1 st2">Destroy</text>
<g>
	<g>
		<path class="st3" d="M101.1,121.8c-4.7,1.3-9.6,2.1-14.7,2.1c-22.5,0-41.7-13.8-49.7-33.4"/>
		<g>
			<path class="st0" d="M34.7,84.7c1.9,2.3,4.8,5,7.3,6.5l-5.1,0l-3.9,3.2C34.1,91.7,34.7,87.8,34.7,84.7z"/>
		</g>
	</g>
</g>
<g>
	<g>
		<path class="st3" d="M128.2,36.7c7.4,9.2,11.8,20.8,11.8,33.5c0,6.7-1.2,13.2-3.5,19.1"/>
		<g>
			<path class="st0" d="M134,94.9c0.2-3,0-7-0.9-9.7l3.7,3.5l5,0.3C139.2,90.2,136.1,92.7,134,94.9z"/>
		</g>
	</g>
</g>
<g>
	<g>
		<path class="st3" d="M33.5,61.1c4-23.4,23.1-41.6,46.8-44.2"/>
		<g>
			<path class="st0" d="M86.3,16.6c-2.8,1.2-6.2,3.3-8.2,5.3l1.4-4.9l-2-4.6C79.8,14.2,83.4,15.7,86.3,16.6z"/>
		</g>
	</g>
</g>
</svg>
